<?xml version="1.0" encoding="iso-8859-1"?>
<!-- Uploaded to: SVG Repo, www.svgrepo.com, Generator: SVG Repo Mixer Tools -->
<svg height="800px" width="800px" version="1.1" id="Capa_1" xmlns="http://www.w3.org/2000/svg" xmlns:xlink="http://www.w3.org/1999/xlink" 
	 viewBox="0 0 512.001 512.001" xml:space="preserve">
<path style="fill:#F4C514;" d="M256.001,93.091c-38.499,0-69.818,31.32-69.818,69.818s31.319,69.818,69.818,69.818
	s69.818-31.322,69.818-69.818C325.819,124.411,294.499,93.091,256.001,93.091z"/>
<path style="fill:#5B699C;" d="M256.001,0C166.171,0,93.092,73.081,93.092,162.909c0,12.851,10.42,23.273,23.273,23.273
	s23.273-10.422,23.273-23.273c0-64.163,52.199-116.364,116.364-116.364s116.364,52.201,116.364,116.364
	c0,12.851,10.42,23.273,23.273,23.273s23.273-10.422,23.273-23.273C418.91,73.081,345.829,0,256.001,0z"/>
<path style="fill:#F4C514;" d="M426.649,418.909c-4.859,0-9.759-1.516-13.945-4.655l-117.915-88.436h-77.576L99.298,414.255
	c-10.282,7.713-24.869,5.627-32.582-4.655s-5.627-24.869,4.655-32.582l124.121-93.091c4.029-3.021,8.929-4.655,13.964-4.655h93.091
	c5.035,0,9.934,1.634,13.964,4.655l124.121,93.091c10.282,7.713,12.367,22.3,4.655,32.582
	C440.714,415.696,433.726,418.909,426.649,418.909z"/>
<path style="fill:#E9D535;" d="M440.631,377.018L316.51,283.927c-4.029-3.021-8.929-4.655-13.964-4.655h-46.545v46.545h38.788
	l117.915,88.436c4.186,3.139,9.086,4.655,13.945,4.655c7.076,0,14.063-3.213,18.637-9.309
	C452.998,399.318,450.913,384.731,440.631,377.018z"/>
<path style="fill:#9E8CEC;" d="M302.546,279.273h-93.091c-12.853,0-23.273,10.42-23.273,23.273v93.091
	c0,12.851,10.42,23.273,23.273,23.273h93.091c12.853,0,23.273-10.422,23.273-23.273v-93.091
	C325.819,289.693,315.399,279.273,302.546,279.273z"/>
<path style="fill:#6A56CF;" d="M302.546,279.273h-46.545v139.636h46.545c12.853,0,23.273-10.422,23.273-23.273v-93.091
	C325.819,289.693,315.399,279.273,302.546,279.273z"/>
<path style="fill:#5B699C;" d="M473.213,372.364H38.789c-12.853,0-23.273,10.42-23.273,23.273v93.091
	c0,12.851,10.42,23.273,23.273,23.273h434.424c12.853,0,23.273-10.422,23.273-23.273v-93.091
	C496.486,382.784,486.066,372.364,473.213,372.364z"/>
<path style="fill:#E9D535;" d="M325.819,162.909c0-38.498-31.32-69.818-69.818-69.818v139.636
	C294.499,232.727,325.819,201.407,325.819,162.909z"/>
<g>
	<path style="fill:#2D4175;" d="M372.365,162.909c0,12.851,10.42,23.273,23.273,23.273s23.273-10.422,23.273-23.273
		C418.91,73.081,345.829,0,256.001,0v46.545C320.164,46.545,372.365,98.746,372.365,162.909z"/>
	<path style="fill:#2D4175;" d="M473.213,372.364H256.001V512h217.212c12.853,0,23.273-10.422,23.273-23.273v-93.091
		C496.486,382.784,486.066,372.364,473.213,372.364z"/>
</g>
</svg>